<svg width="652" height="780" viewBox="0 0 652 780" fill="none" xmlns="http://www.w3.org/2000/svg">
<path d="M652 191.829L553.662 134.169V133.112L326.752 0L99.8408 133.053V133.229L0 191.829V326.527L99.8408 385.068V446.134L157.71 480.072L187.772 497.687L157.71 515.303L99.8408 549.241V646.947L326.752 780L553.662 646.947V549.241L495.793 515.303L465.731 532.918L523.6 566.856L378.956 647.651L523.6 586.585V629.332L326.694 744.77L129.787 629.332V566.856L187.657 532.918L217.719 515.303L247.781 497.687L277.843 480.072L326.694 451.418L375.545 480.072L405.607 497.687L375.545 515.303L326.694 543.957L277.843 515.303L247.781 532.918L326.694 579.187L405.607 532.918L435.669 515.303L465.731 497.687L495.793 480.072L553.662 446.134V384.187L652 326.527V191.829ZM30.0621 308.911V209.444L99.8408 168.519V349.779L30.0621 308.853V308.911ZM465.789 462.457L435.727 480.072L405.664 462.457L326.752 416.188L247.839 462.457L217.777 480.072L187.715 462.457L129.845 428.519V150.668L326.752 35.2304L523.658 150.668L326.752 257.475L523.658 181.025V428.46L465.789 462.398V462.457ZM621.996 308.911L553.72 348.957V169.458L621.996 209.503V308.97V308.911Z" fill="white"/>
</svg>
